<svg width="278" height="68" viewBox="0 0 278 68" fill="none" xmlns="http://www.w3.org/2000/svg">
<path d="M58.1345 32.8848C57.247 34.0788 56.8928 35.4989 55.4463 36.1172C55.3311 34.6417 55.1775 33.2771 55.1263 31.9125C55.0751 30.4797 54.7935 29.098 54.3838 27.7376C53.9998 26.4668 53.8249 25.1235 53.1422 23.7845C52.5106 24.8975 51.9645 25.8528 51.2903 27.0425C49.7158 22.9316 47.77 19.2941 45.0221 15.8101C44.6637 17.5457 44.4674 19.0553 43.8017 20.7866C41.5274 15.7418 37.6274 12.4753 33.7572 9.0936C33.2495 10.0659 33.5951 11.0467 33.1513 11.8697C33.0148 12.1256 32.9593 12.5137 32.6222 12.535C32.251 12.5606 32.1998 12.1555 32.0888 11.9039C30.7319 8.86759 28.4064 6.64583 25.9188 4.56053C25.6969 4.37289 25.4878 4.04027 25.1635 4.1682C24.8222 4.30466 24.9416 4.68846 24.9331 4.97418C24.8904 6.50937 24.9118 8.05735 23.9816 9.40064C23.8578 9.3452 23.7597 9.33241 23.7042 9.27697C23.4567 9.03817 23.2093 8.79509 22.9831 8.53923C20.4656 5.72471 17.3806 3.73323 13.903 2.32171C12.5759 1.78439 12.5205 1.82704 12.4949 3.33238C12.4693 4.18526 12.4437 5.03814 12.4181 5.89103C11.97 7.4518 12.5077 8.95288 12.7893 10.4412C13.0026 11.567 12.6442 11.5456 11.7524 11.4262C10.8649 11.3111 10.2632 10.6331 9.39702 10.4241C9.39702 10.7013 9.36715 10.9188 9.40129 11.1277C9.84506 13.9252 10.2675 16.7269 11.0099 19.4689C11.1081 19.8357 11.3641 20.2706 11.0185 20.5521C10.6814 20.8293 10.2718 20.5137 9.93893 20.3559C9.24768 20.0276 8.59056 19.6395 7.83531 19.2301C7.83531 19.5542 7.80117 19.8058 7.83957 20.0446C8.40708 23.567 9.0002 27.0809 10.3784 30.4029C10.5022 30.7014 10.8137 31.0468 10.5278 31.3496C10.2718 31.6225 9.88346 31.4093 9.54637 31.3752C8.26627 31.243 7.11845 30.6417 5.82129 30.3005C6.14131 33.904 7.25927 37.098 9.41836 39.887C10.0328 40.6844 9.69571 40.9573 8.92339 41.0128C8.31748 41.0554 7.69876 40.9616 7.04165 40.9232C7.69023 44.194 9.05566 46.9488 11.539 49.0981C11.8377 49.3582 12.3626 49.5842 12.1492 50.113C11.9444 50.6333 11.4196 50.6503 10.9331 50.6546C10.3614 50.6631 9.79385 50.6546 8.97459 50.6546C11.0313 52.6504 12.6869 54.6376 15.0081 55.9041C15.6951 56.2794 16.988 56.5182 16.8984 57.1451C16.7746 58.032 15.4988 58.0193 14.4705 58.3178C17.8499 61.6142 21.8737 62.6461 26.4095 62.5097C25.8719 63.9468 24.6771 64.5907 23.6317 65.6099C27.1434 65.9681 30.4589 65.9596 33.7615 65.7165C35.1867 65.6142 37.0599 65.0641 38.3997 64.8253C40.4777 64.6376 41.3866 64.3988 41.8133 64.3988C40.1065 63.1195 35.9547 62.5097 33.706 62.2666C32.9849 62.1899 32.9209 63.0811 32.4259 62.6931C31.7646 62.1728 31.1032 62.1344 31.1458 61.4137C31.1928 60.6803 28.7777 58.7357 27.7323 58.8551C25.3257 59.1237 24.4125 59.9809 22.1852 58.8551C20.329 57.9212 20.8027 58.0662 21.7585 56.2964C22.215 55.4563 21.0032 54.5395 20.0517 54.1642C18.3748 53.5032 18.9295 53.5757 17.4915 52.4585C16.6466 51.8017 16.0322 52.0875 17.0648 51.1791C18.3534 50.0491 17.5939 48.4627 16.2114 47.3412C14.5899 46.0277 12.6783 45.5075 11.9444 43.5032C11.7012 42.8379 11.1422 42.9531 11.9444 42.6503C13.408 42.0959 14.1078 40.113 13.2245 38.8123C12.0724 37.1108 10.7369 36.6119 10.2376 34.5479C9.45676 34.4328 9.99014 33.5244 10.2376 34.5479C11.1252 34.6801 11.9103 36.1172 12.7978 36.2537C13.2202 36.3176 15.038 35.7249 15.358 35.4008C15.725 35.0255 16.796 33.6481 16.6381 33.2686C15.5073 30.5351 12.4522 27.2472 11.9444 24.3133C11.7183 23.0169 9.72558 23.6736 11.091 23.8869C11.6841 23.9764 13.0496 25.1363 13.6512 25.1662C14.0694 24.8037 15.4391 22.6033 15.358 22.1811C14.8588 19.6267 13.7536 17.9977 13.6512 15.358C13.3781 14.8591 11.2958 14.4284 11.9444 14.5051C12.8191 14.6118 13.4933 12.697 14.2528 12.3516L13.6512 15.358C15.4689 17.4604 17.0221 17.0681 18.4132 19.422C20.8752 23.5926 23.2519 27.8101 25.6244 32.0319C25.8761 32.4797 25.8932 30.5266 25.1678 31.1406C26.6655 31.9722 25.8334 32.0447 27.728 31.9935C26.7082 30.2025 26.9215 30.2195 26.0212 28.582C24.6515 26.083 23.0983 24.7611 21.8524 22.1896C21.5878 22.1043 21.4982 21.9295 21.5835 21.6736C21.4001 21.6864 21.336 21.5756 21.3275 21.4135C21.063 21.3282 20.9947 21.1491 21.0672 20.8932C20.8325 20.8591 20.7941 20.6928 20.8112 20.4881C20.7472 20.4114 20.6789 20.3431 20.6021 20.2749C20.4485 20.1427 20.2736 20.019 20.1072 19.8911C20.2736 20.019 20.4485 20.1384 20.6021 20.2749C20.6789 20.3431 20.7515 20.4114 20.8112 20.4881L21.0715 20.8805C21.2763 20.9956 19.6719 22.3687 19.6165 22.6118C19.7914 22.6118 21.5835 21.4988 21.5921 21.6608C21.8524 21.7461 18.874 15.5158 18.7631 15.7887C19.3306 15.6907 25.3385 20.1768 25.5902 20.4796C28.1846 23.6182 29.6481 26.5308 31.9907 29.8613C32.7886 30.9999 33.0703 32.2281 34.1242 33.2728C34.76 32.3176 35.1568 31.3624 35.4043 30.2878C34.7941 30.2664 35.1909 32.7185 34.9648 32.3219C31.5427 26.3346 29.0337 20.4881 25.5902 14.5094C24.6003 12.7909 25.0611 13.4561 26.8703 11.5243C26.8447 10.6928 26.849 11.5158 26.8703 10.6714C26.529 10.4497 26.8831 10.1597 26.8703 10.6714C28.2528 11.5584 29.1745 9.81429 29.9426 11.1917C30.6253 12.4156 31.3677 15.3836 31.9907 16.6416C33.0532 16.5435 33.7615 16.2877 34.5509 15.7887C35.1952 14.3047 34.7301 11.9636 35.9889 13.0297C39.5433 16.0489 41.8005 19.9764 43.8785 24.0404C43.9724 24.2238 44.5356 26.0148 44.7959 26.4498C45.3037 24.6203 45.1544 25.2557 45.6493 23.4647C48.137 26.9402 49.2037 29.469 50.7697 33.2728C51.6231 32.4797 51.2732 31.1108 52.0498 30.2878C52.5661 31.2771 51.973 31.8187 52.0498 32.8464C52.2077 34.9402 53.9273 35.1833 53.8249 37.2857C53.7993 37.8145 52.9629 40.3049 53.3299 40.5224C53.7523 40.7697 54.1876 40.3774 54.61 40.0959C54.8447 39.9381 54.3028 40.7057 54.61 40.9488C54.7508 41.0597 55.5018 40.7057 55.4634 40.9488C54.8831 44.7399 53.5689 45.3625 52.4765 49.0512C52.2717 50.9147 52.2632 51.7634 51.1964 53.3156C51.1324 54.7826 50.6545 54.3902 49.9163 55.4478C49.5323 55.9979 50.151 54.919 49.9163 54.5949C49.2763 53.7037 48.3589 55.9851 47.5567 55.1834C46.8142 56.1813 46.1358 57.2389 45.3122 58.16C44.4162 59.1664 44.0577 60.1515 44.4119 61.5374C44.8599 63.2901 44.7831 63.3242 46.4814 62.4798C50.3729 60.5481 52.6771 57.2602 54.2857 53.3838C56.3125 48.5011 57.311 43.3625 57.8956 38.1428C58.0876 36.4456 58.3863 34.7355 58.1175 32.8763L58.1345 32.8848Z" fill="#CBEAE8"/>
<path d="M44.6725 63.1019C44.6725 63.1019 54.5805 60.7851 56.2283 37.6252L53.9163 39.2807C53.9163 39.2807 54.2484 32.663 52.5964 28.0293L50.9443 31.0075C50.9443 31.0075 49.2923 25.0511 45.6603 20.0889L44.3404 25.0511C44.3404 25.0511 40.3763 15.788 34.7644 12.1485C34.7644 12.1485 34.1044 14.7938 32.1245 15.4595C32.1245 15.4595 30.4725 10.1644 26.5127 7.51905C26.5127 7.51905 26.1805 10.1644 24.2006 12.1527C24.2006 12.1527 19.5766 5.86782 13.9647 3.87952C13.9647 3.87952 12.6448 7.51905 14.2968 12.1527C14.2968 12.1527 13.6369 13.1469 11.3248 13.1469C11.3248 13.1469 11.6569 18.4419 13.3047 22.7428C13.3047 22.7428 10.9927 22.7428 9.67278 22.0814C9.67278 22.0814 10.6649 28.3664 13.3047 33.6614C13.3047 33.6614 9.01281 33.3286 7.69287 32.6672C7.69287 32.6672 8.68495 36.3068 11.6569 40.6076C11.6569 40.6076 10.997 42.5917 9.01707 42.9245C9.01707 42.9245 10.997 47.2254 14.3011 49.5422C14.3011 49.5422 14.6332 51.1977 12.649 52.1876C12.649 52.1876 16.281 55.4986 18.9209 56.4885C18.9209 56.4885 18.9209 58.144 17.6009 59.1338C17.6009 59.1338 19.913 61.4507 27.509 61.1179C27.509 61.1179 28.5011 62.112 27.509 64.4289C27.509 64.4289 32.133 65.7516 42.0368 64.4289C42.0368 64.4289 42.0369 60.7893 41.0448 57.8112C41.0448 57.8112 32.4609 59.1339 24.2049 52.8489C24.2049 52.8489 31.4688 56.8213 40.3848 55.8271C40.3848 55.8271 39.0649 49.8707 37.0807 46.8926C37.0807 46.8926 27.5047 48.2152 20.5687 41.9303C20.5687 41.9303 28.1647 46.2312 36.0886 44.9085C36.0886 44.9085 33.1166 38.2908 31.4646 35.974C31.4646 35.974 25.5206 36.6353 20.5687 30.6789C20.5687 30.6789 25.8527 34.9798 30.8046 34.3185C30.8046 34.3185 21.2286 18.7662 20.2366 17.4435C20.2366 17.4435 28.4926 26.7066 34.1044 35.974C34.1044 35.974 38.0685 32.0016 38.0685 22.4057C38.0685 22.4057 40.0484 31.6688 35.0965 37.6252C35.0965 37.6252 38.4006 43.5816 39.7206 46.5598C39.7206 46.5598 45.3324 40.6034 45.3324 32.0016C45.3324 32.0016 46.9845 40.9362 40.7084 49.2094L43.6804 57.8112C43.6804 57.8112 48.9644 53.5103 51.2764 42.9202C51.2764 42.9202 51.2764 51.8548 44.3404 59.4667L44.6725 63.1062V63.1019Z" fill="#4BA6A1"/>
<path d="M79.8821 2L79.8821 66" stroke="#9B9B9A" stroke-width="2.67961" stroke-linecap="round"/>
<path d="M120.139 12.0148L113.275 5.97617C111.835 4.71291 109.989 3.97717 107.934 3.97717C103.503 3.97717 99.8821 7.57258 99.8821 11.9731C99.8821 16.3737 103.503 19.9691 107.934 19.9691C109.989 19.9691 111.835 19.1917 113.275 17.9701L120.139 12.0148ZM102.301 12.0148C102.301 8.96077 104.803 6.42039 107.934 6.42039C111.01 6.42039 113.568 8.90525 113.568 12.0148C113.568 15.0688 111.066 17.6092 107.934 17.6092C104.859 17.5675 102.301 15.0688 102.301 12.0148Z" fill="#E5173F"/>
<path d="M124.536 16.1082C123.837 16.1082 123.284 15.9308 122.879 15.5761C122.474 15.2214 122.271 14.7248 122.271 14.0863C122.271 13.2349 122.686 12.5356 123.517 11.9883C124.349 11.4309 125.722 11.0154 127.637 10.7418V10.3769C127.637 9.38368 127.131 8.88707 126.117 8.88707C125.114 8.88707 124.146 9.29246 123.213 10.1033L122.529 9.28233C123.614 8.28911 124.855 7.7925 126.254 7.7925C128.038 7.7925 128.929 8.68437 128.929 10.4681V14.0103C128.929 14.9528 129.005 15.6116 129.158 15.9866H127.82C127.698 15.6014 127.637 15.2315 127.637 14.8768C126.756 15.6977 125.722 16.1082 124.536 16.1082ZM124.916 15.0744C125.93 15.0744 126.837 14.6842 127.637 13.9038V11.6539C126.168 11.887 125.119 12.186 124.49 12.5508C123.872 12.9157 123.563 13.3616 123.563 13.8886C123.563 14.2738 123.68 14.5677 123.913 14.7704C124.156 14.9731 124.49 15.0744 124.916 15.0744Z" fill="#666666"/>
<path d="M134.277 16.1538C133.283 16.1538 132.437 15.7839 131.738 15.044C131.049 14.3042 130.704 13.2805 130.704 11.9731C130.704 10.6049 131.069 9.56611 131.799 8.85666C132.528 8.14722 133.39 7.7925 134.383 7.7925C135.863 7.7925 136.912 8.54248 137.53 10.0424L136.42 10.4985C136.015 9.43435 135.326 8.90227 134.353 8.90227C133.704 8.90227 133.152 9.15058 132.696 9.64719C132.25 10.1438 132.027 10.9191 132.027 11.9731C132.027 12.9461 132.234 13.7062 132.65 14.2535C133.076 14.7906 133.633 15.0592 134.322 15.0592C134.839 15.0592 135.265 14.9376 135.599 14.6944C135.934 14.441 136.228 14.0255 136.481 13.4478L137.56 13.8734C137.216 14.6031 136.785 15.1656 136.268 15.5609C135.751 15.9562 135.087 16.1538 134.277 16.1538Z" fill="#666666"/>
<path d="M142.294 16.1538C141.3 16.1538 140.454 15.7839 139.755 15.044C139.066 14.3042 138.721 13.2805 138.721 11.9731C138.721 10.6049 139.086 9.56611 139.816 8.85666C140.545 8.14722 141.407 7.7925 142.4 7.7925C143.88 7.7925 144.929 8.54248 145.547 10.0424L144.437 10.4985C144.032 9.43435 143.342 8.90227 142.37 8.90227C141.721 8.90227 141.169 9.15058 140.712 9.64719C140.267 10.1438 140.044 10.9191 140.044 11.9731C140.044 12.9461 140.251 13.7062 140.667 14.2535C141.093 14.7906 141.65 15.0592 142.339 15.0592C142.856 15.0592 143.282 14.9376 143.616 14.6944C143.951 14.441 144.244 14.0255 144.498 13.4478L145.577 13.8734C145.233 14.6031 144.802 15.1656 144.285 15.5609C143.768 15.9562 143.104 16.1538 142.294 16.1538Z" fill="#666666"/>
<path d="M150.371 16.1538C149.358 16.1538 148.496 15.7889 147.787 15.0592C147.087 14.3295 146.738 13.3008 146.738 11.9731C146.738 11.2738 146.844 10.6505 147.057 10.1033C147.28 9.54584 147.569 9.10497 147.924 8.78065C148.278 8.45634 148.663 8.2131 149.079 8.05094C149.505 7.87865 149.935 7.7925 150.371 7.7925C151.375 7.7925 152.18 8.15229 152.788 8.87187C153.407 9.58131 153.716 10.6353 153.716 12.034V12.3076H148.045C148.066 13.1792 148.299 13.8633 148.745 14.3599C149.201 14.8464 149.773 15.0896 150.462 15.0896C151.01 15.0896 151.466 14.9832 151.831 14.7704C152.206 14.5575 152.555 14.2282 152.88 13.7822L153.64 14.4511C152.849 15.5862 151.76 16.1538 150.371 16.1538ZM148.076 11.289H152.469C152.418 10.5492 152.211 9.96643 151.846 9.54077C151.491 9.10497 150.994 8.88707 150.356 8.88707C149.778 8.88707 149.277 9.08977 148.851 9.49516C148.425 9.90056 148.167 10.4985 148.076 11.289Z" fill="#666666"/>
<path d="M158.139 16.1386C157.44 16.1386 156.802 16.017 156.224 15.7737C155.656 15.5204 155.2 15.1859 154.856 14.7704L155.646 13.9799C156.335 14.7197 157.172 15.0896 158.155 15.0896C159.442 15.0896 160.085 14.669 160.085 13.8278C160.085 13.4427 159.923 13.1539 159.599 12.9613C159.285 12.7586 158.758 12.5711 158.018 12.3988C157.035 12.1657 156.31 11.8819 155.844 11.5475C155.378 11.213 155.145 10.6911 155.145 9.98164C155.145 9.35327 155.398 8.83133 155.905 8.4158C156.422 8.00027 157.106 7.7925 157.957 7.7925C159.183 7.7925 160.207 8.17763 161.028 8.94788L160.344 9.81441C159.655 9.17591 158.879 8.85666 158.018 8.85666C157.471 8.85666 157.06 8.95801 156.786 9.16071C156.523 9.36341 156.391 9.62185 156.391 9.93603C156.391 10.2908 156.538 10.5593 156.832 10.7418C157.126 10.9242 157.612 11.0914 158.292 11.2434C158.819 11.3752 159.239 11.4968 159.553 11.6083C159.867 11.7096 160.177 11.8566 160.481 12.0492C160.785 12.2417 161.003 12.4799 161.134 12.7637C161.276 13.0373 161.347 13.3768 161.347 13.7822C161.347 14.5322 161.048 15.115 160.45 15.5305C159.852 15.9359 159.082 16.1386 158.139 16.1386Z" fill="#666666"/>
<path d="M165.77 16.1386C165.071 16.1386 164.433 16.017 163.855 15.7737C163.287 15.5204 162.831 15.1859 162.487 14.7704L163.277 13.9799C163.966 14.7197 164.802 15.0896 165.786 15.0896C167.073 15.0896 167.716 14.669 167.716 13.8278C167.716 13.4427 167.554 13.1539 167.23 12.9613C166.916 12.7586 166.389 12.5711 165.649 12.3988C164.666 12.1657 163.941 11.8819 163.475 11.5475C163.009 11.213 162.775 10.6911 162.775 9.98164C162.775 9.35327 163.029 8.83133 163.536 8.4158C164.052 8.00027 164.737 7.7925 165.588 7.7925C166.814 7.7925 167.838 8.17763 168.659 8.94788L167.975 9.81441C167.286 9.17591 166.51 8.85666 165.649 8.85666C165.101 8.85666 164.691 8.95801 164.417 9.16071C164.154 9.36341 164.022 9.62185 164.022 9.93603C164.022 10.2908 164.169 10.5593 164.463 10.7418C164.757 10.9242 165.243 11.0914 165.922 11.2434C166.449 11.3752 166.87 11.4968 167.184 11.6083C167.498 11.7096 167.807 11.8566 168.111 12.0492C168.416 12.2417 168.633 12.4799 168.765 12.7637C168.907 13.0373 168.978 13.3768 168.978 13.7822C168.978 14.5322 168.679 15.115 168.081 15.5305C167.483 15.9359 166.713 16.1386 165.77 16.1386Z" fill="#666666"/>
<path d="M114.702 64.0227L106.452 37.1399H106.242C106.538 42.6086 106.687 46.2571 106.687 48.0852V64.0227H100.195V29.7571H110.085L118.195 55.9602H118.335L126.937 29.7571H136.827V64.0227H130.054V47.804C130.054 47.0383 130.062 46.1555 130.077 45.1555C130.109 44.1555 130.218 41.4993 130.406 37.1868H130.195L121.359 64.0227H114.702ZM141.249 31.0461C141.249 28.718 142.546 27.554 145.139 27.554C147.733 27.554 149.03 28.718 149.03 31.0461C149.03 32.1555 148.702 33.0227 148.046 33.6477C147.405 34.2571 146.436 34.5618 145.139 34.5618C142.546 34.5618 141.249 33.3899 141.249 31.0461ZM148.702 64.0227H141.553V37.8196H148.702V64.0227ZM177.053 64.0227H169.904V48.718C169.904 46.8274 169.568 45.4133 168.897 44.4758C168.225 43.5227 167.154 43.0461 165.686 43.0461C163.686 43.0461 162.24 43.718 161.35 45.0618C160.459 46.3899 160.014 48.6008 160.014 51.6946V64.0227H152.865V37.8196H158.326L159.287 41.1711H159.686C160.482 39.9055 161.576 38.9524 162.967 38.3118C164.373 37.6555 165.967 37.3274 167.748 37.3274C170.795 37.3274 173.107 38.1555 174.686 39.8118C176.264 41.4524 177.053 43.8274 177.053 46.9368V64.0227ZM192.091 58.7961C193.341 58.7961 194.841 58.5227 196.591 57.9758V63.2961C194.81 64.093 192.622 64.4915 190.029 64.4915C187.169 64.4915 185.083 63.7727 183.771 62.3352C182.474 60.8821 181.826 58.7102 181.826 55.8196V43.1868H178.404V40.1633L182.341 37.7727L184.404 32.2415H188.974V37.8196H196.31V43.1868H188.974V55.8196C188.974 56.8352 189.255 57.5852 189.818 58.0696C190.396 58.554 191.154 58.7961 192.091 58.7961ZM216.833 56.2415C216.833 58.929 215.895 60.9758 214.02 62.3821C212.161 63.7883 209.372 64.4915 205.653 64.4915C203.747 64.4915 202.122 64.3586 200.778 64.093C199.434 63.843 198.177 63.468 197.005 62.968V57.0618C198.333 57.6868 199.825 58.2102 201.481 58.6321C203.153 59.054 204.622 59.2649 205.887 59.2649C208.481 59.2649 209.778 58.5149 209.778 57.0149C209.778 56.4524 209.606 55.9993 209.262 55.6555C208.919 55.2961 208.325 54.8977 207.481 54.4602C206.637 54.0071 205.512 53.4836 204.106 52.8899C202.091 52.0461 200.606 51.2649 199.653 50.5461C198.716 49.8274 198.028 49.0071 197.591 48.0852C197.169 47.1477 196.958 45.9993 196.958 44.6399C196.958 42.3118 197.856 40.5149 199.653 39.2493C201.466 37.968 204.028 37.3274 207.341 37.3274C210.497 37.3274 213.567 38.0149 216.552 39.3899L214.395 44.5461C213.083 43.9836 211.856 43.5227 210.716 43.1633C209.575 42.804 208.411 42.6243 207.223 42.6243C205.114 42.6243 204.059 43.1946 204.059 44.3352C204.059 44.9758 204.395 45.5305 205.067 45.9993C205.755 46.468 207.247 47.1633 209.544 48.0852C211.591 48.9133 213.091 49.6868 214.044 50.4055C214.997 51.1243 215.7 51.9524 216.153 52.8899C216.606 53.8274 216.833 54.9446 216.833 56.2415ZM224.746 50.8743C224.746 53.468 225.168 55.429 226.012 56.7571C226.871 58.0852 228.262 58.7493 230.184 58.7493C232.09 58.7493 233.457 58.093 234.285 56.7805C235.129 55.4524 235.551 53.4836 235.551 50.8743C235.551 48.2805 235.129 46.3352 234.285 45.0383C233.442 43.7415 232.059 43.093 230.137 43.093C228.231 43.093 226.856 43.7415 226.012 45.0383C225.168 46.3196 224.746 48.2649 224.746 50.8743ZM242.863 50.8743C242.863 55.1399 241.738 58.4758 239.488 60.8821C237.238 63.2883 234.106 64.4915 230.09 64.4915C227.574 64.4915 225.356 63.9446 223.434 62.8508C221.512 61.7415 220.035 60.1555 219.004 58.093C217.973 56.0305 217.457 53.6243 217.457 50.8743C217.457 46.593 218.574 43.2649 220.809 40.8899C223.043 38.5149 226.184 37.3274 230.231 37.3274C232.746 37.3274 234.965 37.8743 236.887 38.968C238.809 40.0618 240.285 41.6321 241.317 43.679C242.348 45.7258 242.863 48.1243 242.863 50.8743ZM259.894 43.1868H253.707V64.0227H246.558V43.1868H242.621V39.7415L246.558 37.8196V35.8977C246.558 32.9133 247.292 30.7336 248.761 29.3586C250.23 27.9836 252.582 27.2961 255.816 27.2961C258.285 27.2961 260.48 27.6633 262.402 28.3977L260.574 33.6477C259.136 33.1946 257.808 32.968 256.589 32.968C255.574 32.968 254.839 33.2727 254.386 33.8821C253.933 34.4758 253.707 35.2415 253.707 36.179V37.8196H259.894V43.1868ZM271.698 58.7961C272.948 58.7961 274.448 58.5227 276.198 57.9758V63.2961C274.417 64.093 272.229 64.4915 269.636 64.4915C266.776 64.4915 264.69 63.7727 263.378 62.3352C262.081 60.8821 261.432 58.7102 261.432 55.8196V43.1868H258.011V40.1633L261.948 37.7727L264.011 32.2415H268.581V37.8196H275.917V43.1868H268.581V55.8196C268.581 56.8352 268.862 57.5852 269.425 58.0696C270.003 58.554 270.761 58.7961 271.698 58.7961Z" fill="#1E1E1E"/>
</svg>
