<?xml version="1.0" encoding="utf-8"?>
<!DOCTYPE svg PUBLIC "-//W3C//DTD SVG 20010904//EN" "http://www.w3.org/TR/2001/REC-SVG-20010904/DTD/svg10.dtd">
<svg version="1.0" xmlns="http://www.w3.org/2000/svg" width="1620px" height="672px" viewBox="0 0 1620 672" preserveAspectRatio="xMidYMid meet">
 <g fill="#fefefe">
  <path d="M0 336 l0 -336 810 0 810 0 0 336 0 336 -810 0 -810 0 0 -336z m1237.3 322.9 c11.9 -6.1 38.8 -29.4 112.2 -97.4 35 -32.5 59.3 -56.2 66.5 -65.2 3.2 -4 7.3 -10.3 9.2 -14 3.3 -6.7 3.3 -6.8 3.6 -24 0.5 -24.4 -1.6 -37.9 -6.2 -39.6 -3.2 -1.3 -45.2 35 -113.1 97.8 -47 43.5 -86 78.1 -98.9 87.8 -8.4 6.3 -14.3 4.5 -15.4 -4.9 l-0.5 -4.6 17.9 -17.7 c19.8 -19.5 45 -43.2 101.4 -95.1 47 -43.2 84.7 -78.9 101.3 -95.8 l12.9 -13.1 -2.4 -4.2 c-3.1 -5.7 -20.8 -23.6 -28 -28.3 -5.4 -3.6 -5.7 -3.7 -8.6 -2.2 -10.3 5.3 -37.3 28.9 -114.7 100.1 -58.3 53.6 -99.3 90.2 -117.8 105.3 -7.8 6.3 -9.3 7.2 -12.9 7.2 -5.7 0 -7.8 -2.1 -7.8 -7.9 l0 -4.6 20.2 -20 c24.6 -24.3 48.2 -46.7 94.3 -89.4 48.2 -44.7 64.9 -60.5 87.3 -82.6 17.4 -17.1 30.2 -31 30.2 -32.9 0 -3.2 -29.6 -6.3 -49.5 -5.3 -25.9 1.3 -33.8 7.1 -123 89.2 -49.2 45.2 -76.9 70.4 -94.5 85.9 l-14.5 12.7 -5 -0.3 -5 -0.3 -0.3 -5.2 c-0.4 -6.2 0.8 -8.8 8 -17.5 9.1 -11 23.5 -25.3 53.8 -53.6 35.9 -33.5 77 -74.3 77 -76.5 0 -4.3 -32.2 -33.7 -36.9 -33.7 -3.8 0 -23.1 15.8 -56.1 46 -24.2 22.1 -34.5 31 -41.6 35.7 -4.5 3 -5.8 3.4 -10.5 3.1 l-5.4 -0.3 -0.3 -6 c-0.3 -6 -0.2 -6.1 4.9 -12 2.8 -3.3 15.3 -16.1 27.8 -28.5 12.5 -12.4 24 -24.4 25.6 -26.8 2.8 -4.2 2.8 -4.4 1.2 -7.7 -2 -4.1 -3.2 -4.3 -9.5 -1.1 -8.7 4.4 -38.8 29.2 -54.8 45.1 -11.2 11.1 -13.6 16.4 -14.2 30.4 -0.5 12.3 1.2 37.4 2.9 43.1 0.7 2.2 2 4.6 2.9 5.5 1.4 1.3 2.2 1.1 7.6 -2.1 8.2 -4.8 18.5 -13.6 49 -41.4 52.8 -48.2 60.3 -54 70.7 -54 l5.7 0 0 5.4 c0 4.8 -0.4 6 -3.9 10.3 -5.3 6.5 -28.8 29.5 -56.1 54.8 -32 29.8 -64.1 60.7 -71.7 69.2 l-6.5 7.3 1.7 2.7 c4.8 7.6 32.8 32.3 36.5 32.3 1.3 0 19.3 -14.2 33.7 -26.6 16.8 -14.3 35.4 -31 70.8 -63.4 53.9 -49.3 80.5 -72.8 100 -88.4 14.1 -11.3 16.3 -12.6 21.7 -12.6 l4.8 0 0 3.7 c0 2.4 -0.9 4.8 -2.7 7.2 -6.5 8.7 -42.6 43.8 -97.3 94.6 -58 53.8 -109 103.8 -109 106.8 0 4.6 33.3 33.7 38.5 33.7 4.6 0 47.6 -37.4 131.5 -114.5 64 -58.8 92.7 -84 106 -92.8 4.6 -3.1 6.3 -3.7 10.7 -3.7 l5.3 0 0 4.4 c0 3.7 -0.8 5.4 -4.4 10.3 -8.5 11.2 -48 49.2 -138.1 132.8 -28.6 26.6 -87.1 82 -89.4 84.9 -1.2 1.5 -0.2 2.8 9.3 12.1 12.7 12.4 30.3 26 31.9 24.7 16.1 -12.1 50.3 -42.1 102.2 -89.7 48.2 -44.2 80.9 -73.7 87.6 -78.8 3.9 -2.9 10.5 -3.7 12.7 -1.5 1.6 1.6 1.5 6.1 -0.3 10.5 -3.9 9.4 -30.4 36.7 -81.5 84.2 -83.9 78 -102 96.8 -98 101.6 1.6 2 2.3 1.9 7.3 -0.6z m-118.9 -381.2 c7.5 -4.2 7.9 -5.7 8.7 -35.1 0.7 -28.3 1.6 -34.3 5.2 -35.1 1.2 -0.2 4.7 -0.9 7.7 -1.5 6.8 -1.3 10.3 -4.3 13.7 -11.6 2 -4.4 2.6 -7.9 3.4 -20.2 1 -16.3 3.6 -28.8 8.7 -41.3 3.4 -8.4 29.8 -62.2 45.8 -93.2 10.6 -20.6 10.7 -20.8 8.8 -22.9 -6.4 -7.1 -21.7 -8.2 -104.9 -7.3 -64.5 0.7 -94.1 1.7 -99.3 3.6 -1.8 0.6 -3.6 1.9 -4.1 2.8 -1.6 3 4.8 17.8 28 64.1 27.8 55.5 28.6 57.6 33.4 91.1 2.7 19.1 5.3 28.5 9 31.9 2.5 2.4 7.9 3.9 13.7 4 6.7 0 7.1 1.5 7.9 30.9 0.8 27.5 2 35.5 6 39.7 2.8 2.9 3.4 3 8.3 0.1z m-1011.9 -39.1 c11.7 -3.1 20.3 -8.2 29.6 -17.5 13.1 -13.1 18.8 -26 21.1 -48.1 1.3 -12.3 -0.5 -27.2 -4.6 -39 -5.5 -16 -18.7 -31.4 -32.8 -38.3 -11.5 -5.6 -18.5 -7.1 -32.8 -7.1 -10.7 0 -13.6 0.4 -20.3 2.6 -24.3 8.1 -39.6 25.8 -46.4 53.5 -2.5 10.2 -2.2 30.4 0.5 41.5 7.1 29 25.6 47.5 53.2 53.4 8 1.7 24.1 1.2 32.5 -1z m334.5 -0.6 c10.5 -3 21.9 -9.2 28.6 -15.6 l5.6 -5.4 -7.2 -8 c-4 -4.4 -7.3 -8 -7.5 -8 -0.2 0 -2.4 1.8 -5 3.9 -2.7 2.2 -7.6 5 -10.9 6.3 -5.4 2 -7.8 2.3 -21.1 2.3 -13.7 0 -15.4 -0.2 -19.7 -2.3 -11.7 -5.9 -19.5 -17.1 -20.5 -29.6 l-0.6 -6.6 49.2 0 49.1 0 0 -7.7 c0 -18.6 -3.2 -33.8 -9.6 -46.4 -6.8 -13.2 -17.6 -23.2 -30.3 -28 -19.1 -7.2 -36.7 -6.4 -54.6 2.5 -18.9 9.4 -30.3 24.4 -36.7 48.5 -2.9 11 -2.9 32.5 0.1 43.5 7.2 27.1 26.8 45.7 54.1 51.7 10.8 2.4 26.2 1.9 37 -1.1z m134.8 0.9 l5.2 -1.2 0 -12.1 0 -12.1 -9.3 -0.1 c-6.3 -0.1 -10.2 -0.6 -12.3 -1.7 -5.8 -3 -5.9 -3.8 -5.9 -52.7 l0 -44.5 13.3 -0.3 13.2 -0.3 0 -11.4 0 -11.4 -13.2 -0.3 -13.3 -0.3 -0.3 -18.7 -0.2 -18.8 -17 0 -17 0 -0.2 18.8 -0.3 18.7 -11.2 0.3 -11.3 0.3 0 11.4 0 11.4 11.3 0.3 11.2 0.3 0.5 48.5 c0.5 47.6 0.5 48.6 2.8 54.1 5.1 12.8 13.8 20 27.5 22.9 5.3 1.1 19.6 0.6 26.5 -1.1z m329.7 -0.4 c18.3 -5 33.7 -17.6 41.8 -34.6 6.3 -13 7.8 -19.1 8.4 -34.9 0.9 -22.1 -3.2 -37.9 -13.7 -52.8 -6.4 -9.1 -13.7 -15.4 -23.5 -20.2 -21.2 -10.5 -42.5 -10.6 -63.4 -0.3 -17.2 8.5 -28.2 22.4 -34.7 43.8 -2.5 8.1 -2.7 10.6 -2.8 24.5 0 12.1 0.4 17 1.8 22.5 8.2 30.6 27.3 48.6 57.6 53.9 4.9 0.9 22.6 -0.3 28.5 -1.9z m448.5 1.1 c16.6 -2.7 29.1 -8.7 39 -18.6 18.1 -18.1 21.3 -43.8 8 -63.8 -4.6 -6.9 -10.9 -12.1 -19.7 -16.3 -5.9 -2.8 -6.3 -3.2 -6.3 -6.5 0 -2.2 0.5 -3.4 1.3 -3.4 2.7 0 15.4 -9.9 19.4 -15.2 11.9 -15.3 13.3 -31.3 4.6 -49.6 -3.8 -7.9 -14.9 -18.9 -23.3 -22.9 -12.6 -6.1 -20.8 -7.8 -37.5 -7.8 -13.8 0.1 -15.7 0.3 -23 2.8 -22.6 7.9 -37.8 23.6 -41 42.4 l-0.7 4.3 17 0 17 0 1.2 -5.2 c1.6 -6.5 7.1 -12.7 14.3 -15.9 4.4 -2 6.9 -2.3 16.2 -2.3 13.2 0 19.4 2.2 25 8.7 4.6 5.3 5.5 9 5.5 21.7 0 12.5 -2.2 18.4 -8.8 24.1 -6 5.1 -9.8 6.1 -27.4 6.6 l-15.8 0.5 0 12.8 0 12.8 17.3 0.4 c15.5 0.3 17.7 0.6 22.5 2.7 6.6 3 12.5 9.5 14.3 15.8 0.8 2.7 1.4 9.2 1.4 14.8 0 12.6 -1.8 17.6 -8.4 23.8 -6.9 6.4 -12.8 8 -28 7.5 -12.5 -0.4 -16.1 -1.6 -23.1 -7.5 -3.7 -3.1 -8 -11.4 -8 -15.5 l0 -2.8 -17.5 0 -17.4 0 0.5 3.3 c2.1 12 7 21.5 15.3 29.8 16.1 16 40.2 22.8 66.1 18.5z m-1131 -55.5 l0 -53.9 3.3 -4.3 c1.7 -2.3 5.7 -5.6 8.7 -7.3 4.7 -2.6 6.6 -3.1 14.9 -3.4 15.5 -0.7 23.5 2.2 27.9 10.2 1.5 2.8 1.8 8.6 2.2 57.6 l0.5 54.5 17.3 0.3 17.2 0.2 0 -52 c0 -58 -0.3 -61.5 -6.5 -74.7 -5.6 -12 -13.3 -18.1 -27.2 -21.7 -16.2 -4.2 -34 0.7 -47.4 13.2 -4.3 3.9 -6.4 5.2 -8.8 5.2 -2.9 0 -3.1 -0.2 -3.1 -3.9 0 -2.1 -0.3 -5.9 -0.6 -8.5 l-0.7 -4.6 -15.8 0 -15.9 0 0 73.5 0 73.5 17 0 17 0 0 -53.9z m456 5.9 l14.4 -48.1 3.5 0.3 3.4 0.3 12.3 41 c6.8 22.6 13.3 44 14.4 47.8 l2.1 6.7 14.2 0 14.2 0 18.4 -72.3 c10.1 -39.7 18.6 -72.8 18.8 -73.4 0.4 -1 -3.2 -1.3 -15.5 -1.3 l-16 0 -1.6 7.3 c-0.9 3.9 -5.2 24.8 -9.6 46.2 -4.4 21.5 -8.2 40 -8.5 41.3 -0.4 1.7 -1.2 2.2 -3.8 2.2 l-3.3 0 -13.8 -48.5 -13.9 -48.5 -11.8 0 -11.7 0 -1.1 3.3 c-0.5 1.7 -5.8 19.9 -11.6 40.2 -16.8 58.7 -15 53.5 -18.8 53.5 l-3.2 0 -3.7 -18.2 c-2 -10.1 -6.5 -31.9 -9.9 -48.5 l-6.2 -30.3 -15.9 0 c-8.7 0 -15.8 0.2 -15.8 0.4 0 0.2 7.4 29.3 16.4 64.7 9.1 35.4 17.5 68.3 18.7 73.2 l2.1 8.7 14.2 0 14.2 0 14.4 -48z m853.5 45.2 c34.9 -9.6 58.3 -35.2 66.2 -72.4 1.3 -6 1.8 -12.8 1.8 -24.8 0 -12 -0.5 -18.8 -1.8 -24.8 -9.3 -43.5 -39.1 -70.7 -82.6 -75.3 -4.7 -0.5 -21.8 -0.9 -37.8 -0.9 l-29.3 0 0 100.6 0 100.5 37.8 -0.3 c35.1 -0.4 38.2 -0.6 45.7 -2.6z"/>
  <path d="M1070.9 74 c-12.3 -1.2 -15.1 -3.9 -24 -22.2 -5 -10.7 -6.1 -17.1 -3.1 -18.7 1.1 -0.6 8.3 -1.5 15.9 -2.1 15.3 -1.1 103.2 -1.4 118.6 -0.3 l9.7 0.6 0 4.7 c0 3.6 -1.3 7.6 -5.4 16.6 -6.2 13.6 -10.1 18.8 -15.4 20.5 -4.3 1.4 -83.8 2.2 -96.3 0.9z"/>
  <path d="M74 212.7 c-5.6 -1.8 -14.4 -11.2 -16.8 -17.9 -4.4 -11.9 -5.5 -32.9 -2.7 -49.4 1.9 -10.7 4.1 -15.8 9.1 -21.3 6 -6.7 10.3 -8.4 22.1 -8.9 16.1 -0.7 24.5 3.4 30.7 14.8 4.4 8 5.7 14.3 6.3 29.5 0.9 22.5 -2.3 36.6 -10.3 45.4 -6.3 7.1 -10.1 8.5 -23.4 8.8 -6.7 0.1 -12.9 -0.3 -15 -1z"/>
  <path d="M383.3 146.6 c1.4 -15.4 9.2 -26.6 21 -30.6 6.1 -1.9 23.2 -0.9 28.2 1.7 9.1 4.8 13.2 12.4 14.2 26.2 l0.6 9.1 -32.3 0 -32.3 0 0.6 -6.4z"/>
  <path d="M872.9 212.6 c-5.3 -1.9 -10.4 -6.1 -13.8 -11.4 -5 -8 -6.3 -14 -6.8 -32.3 -0.8 -24.9 2.3 -37.4 11.4 -46.1 6.3 -6.1 11.2 -7.8 23 -7.8 9.5 0 10.5 0.2 16.5 3.3 8 4.1 13.6 11.9 16.4 22.8 2.6 10.1 2.6 35 0.1 46 -3 13.1 -11 23.2 -20.5 25.9 -5.1 1.4 -21.9 1.2 -26.3 -0.4z"/>
  <path d="M1485 138 l0 -72 18.3 0 c25.2 0 32.6 2.1 43.4 12.3 13.4 12.7 18.1 31 17 66.1 -0.4 13.5 -1.1 20.3 -2.7 26.5 -5.1 20.6 -17.9 34.2 -35.8 38 -2.9 0.6 -13.2 1.1 -22.7 1.1 l-17.5 0 0 -72z"/>
 </g>
 <g fill="#405160">
  <path d="M71 242.6 c-14.3 -3 -25.4 -9 -34.8 -18.7 -9.5 -9.9 -14.7 -19.6 -18.4 -34.7 -2.8 -11.4 -3.1 -36.9 -0.5 -47.5 6.9 -27.9 22.1 -45.4 46.4 -53.5 7 -2.3 9.3 -2.6 23.3 -2.6 17.6 -0.1 23.6 1.1 35.8 7.1 14 6.9 27.3 22.3 32.8 38.2 2.8 8.2 5.4 23.8 5.4 33.1 0 15.9 -3.1 30.3 -9.2 43 -3.3 6.9 -5.7 10.1 -12.7 17.1 -9.3 9.3 -17.8 14.3 -29.6 17.5 -8.2 2.2 -30.1 2.7 -38.5 1z m30.6 -34.3 c5 -2.7 11 -9.2 13.5 -14.8 3.3 -7.4 5.2 -21.8 4.6 -34 -0.7 -12.5 -2.2 -19.1 -6.3 -26.5 -5.8 -10.6 -15.1 -15.6 -27.8 -14.8 -8.5 0.6 -13.7 3 -19 8.9 -5 5.5 -7.2 10.6 -9.1 21.3 -2.7 15.5 -1.7 31.5 2.7 43.4 2.4 6.7 11.2 16.1 16.8 17.9 5.6 1.9 19.7 1.1 24.6 -1.4z"/>
  <path d="M401 242.1 c-27.3 -5.9 -46.8 -24.6 -54.2 -51.7 -3 -11.3 -3 -38.3 0 -49.5 6.5 -24.2 17.8 -39.1 36.7 -48.5 10.8 -5.3 19.7 -7.4 32.5 -7.4 27.3 0 47.3 11.3 58.4 32.9 6.8 13.3 9.6 27.7 9.6 49.4 l0 10.7 -49.1 0 -49.1 0 0.6 3.8 c1.2 6.4 6.4 15.8 11.2 20.1 7.2 6.3 12.5 8.4 23 8.9 15.3 0.7 26 -2.8 34.9 -11.7 l5 -4.9 9.8 10.9 c5.3 5.9 9.7 11.3 9.7 11.8 0 0.5 -2.9 3.9 -6.4 7.4 -7.3 7.3 -18.1 13.4 -29.6 16.7 -10.9 3.1 -31.5 3.7 -43 1.1z m42.5 -98.3 c-1.8 -16 -10.2 -24.6 -25.1 -25.6 -7.9 -0.5 -12.8 0.7 -18.6 4.5 -6.1 4.1 -11.4 13.5 -13.2 23.6 l-0.7 3.7 29.2 0 29.1 0 -0.7 -6.2z"/>
  <path d="M546.3 243 c-13.7 -2.9 -22.4 -10.1 -27.5 -22.9 -2.3 -5.5 -2.3 -6.5 -2.8 -54.1 l-0.5 -48.5 -11.2 -0.3 -11.3 -0.3 0 -14.4 0 -14.4 11.3 -0.3 11.2 -0.3 0.3 -18.7 0.2 -18.8 20 0 20 0 0.2 18.8 0.3 18.7 13.3 0.3 13.2 0.3 0 14.4 0 14.4 -13.2 0.3 -13.3 0.3 0 41.5 c0 45.6 0.1 46.7 5.9 49.7 2.2 1.2 5.7 1.6 12.4 1.5 l9.2 -0.1 0 15.3 0 15.3 -5.2 1.3 c-6.5 1.6 -26.8 2.2 -32.5 1z"/>
  <path d="M874 243.4 c-25.6 -4.5 -43.6 -18.3 -53.2 -40.9 -5.3 -12.6 -6.3 -18.5 -6.2 -38.5 0 -17.2 0.2 -19.1 2.8 -27.5 6.6 -21.5 17.5 -35.3 34.7 -43.8 12.6 -6.2 22.4 -8.1 37.8 -7.4 13.6 0.6 20.7 2.3 31.6 7.7 18.8 9.2 31.7 27.3 36 50.5 1.4 7.1 1.6 12.6 1.2 25.5 -0.6 19 -1.7 24.1 -8.4 37.9 -8.1 17 -23.4 29.5 -41.8 34.6 -5.8 1.6 -29 2.9 -34.5 1.9z m22.2 -33.4 c9.5 -2.7 17.5 -12.8 20.5 -25.9 2.4 -10.7 2.3 -30.2 -0.1 -40 -2.8 -10.9 -8.3 -18.7 -16.4 -22.8 -5.5 -2.8 -7.4 -3.3 -13.5 -3.3 -16.2 0.1 -26.4 9.8 -30.3 29 -2.1 10.5 -1.5 32.6 1.1 41 3.3 10.6 10.1 18.7 18.4 21.6 4.4 1.6 15.2 1.8 20.3 0.4z"/>
  <path d="M1321.5 242.5 c-15.3 -2.8 -26.7 -8.6 -36.6 -18.4 -9.2 -9.2 -14.2 -19.7 -15.5 -32.7 l-0.7 -6.4 20.7 0 20.6 0 0 2.8 c0 4.1 4.3 12.4 8 15.5 6.2 5.3 10.9 7 20.1 7.5 11.8 0.6 18.5 -1.4 25 -7.5 2.9 -2.7 5.5 -6.3 6.6 -9.1 2.2 -5.7 2.4 -16.7 0.4 -23.5 -1.8 -6.3 -7.7 -12.8 -14.3 -15.8 -4.8 -2.1 -7 -2.4 -22.5 -2.7 l-17.3 -0.4 0 -15.8 0 -15.8 15.8 -0.5 c17.6 -0.5 21.4 -1.5 27.4 -6.6 6 -5.1 8.8 -11.8 8.8 -21.1 0 -9.7 -1.2 -13.7 -5.5 -18.7 -5 -5.9 -12 -8.6 -22 -8.6 -14.1 0 -24.8 7 -27.5 18.1 l-1.2 5.2 -19.9 0 -19.9 0 0 -4.2 c0.1 -20.7 16.5 -39.8 41.5 -48.5 7.6 -2.6 8.9 -2.8 26 -2.8 15.9 0 18.9 0.3 26 2.3 12.9 3.7 20.2 7.8 28 15.7 11.5 11.5 16 23.5 15.3 40.9 -0.4 11.6 -2.8 18 -10 27.4 -4.1 5.2 -14.1 13.3 -18.8 15 -2.2 0.8 -1.9 1.1 4 4 13.4 6.3 21.9 15.9 26.1 29.1 2.8 8.6 3 23.9 0.5 32.6 -5.5 18.7 -19.9 33.1 -40.1 40 -12.7 4.3 -34.8 5.7 -49 3z"/>
  <path d="M186 164.5 l0 -76.5 18.9 0 18.8 0 0.7 4.6 c0.3 2.6 0.6 6.5 0.6 8.6 l0 4 5.8 -5.3 c10.9 -10.2 23.3 -14.9 39.1 -14.9 20.5 0 34.3 7.7 41.6 23.3 6.2 13.3 6.5 16.4 6.5 77.7 l0 55 -20.2 -0.2 -20.3 -0.3 -0.5 -54.5 c-0.4 -49 -0.7 -54.8 -2.2 -57.6 -4.1 -7.6 -12.6 -11 -24.8 -10.2 -8.4 0.6 -16 4.5 -20.7 10.7 l-3.3 4.3 0 53.9 0 53.9 -20 0 -20 0 0 -76.5z"/>
  <path d="M622.2 197.3 c-6.2 -24.1 -15 -58.5 -19.5 -76.6 l-8.4 -32.7 19.7 0 19.7 0 6.3 30.7 c3.4 17 8 38.9 10 48.8 l3.7 18 2.6 -8.5 c1.4 -4.7 7.4 -25.1 13.2 -45.5 5.8 -20.3 11.1 -38.5 11.6 -40.2 l1.1 -3.3 14.7 0 14.8 0 13.9 48.6 c9.1 32 14.1 47.9 14.6 46.7 0.4 -1 4.8 -21.8 9.8 -46.3 5 -24.5 9.4 -45.5 9.7 -46.8 0.5 -2.2 0.6 -2.2 19.9 -2.2 10.7 0 19.4 0.3 19.4 0.8 0 0.4 -8.6 34.8 -19.2 76.4 l-19.3 75.8 -17.2 0 -17.2 0 -1.9 -6.2 c-1.1 -3.5 -7.5 -24.7 -14.2 -47.3 -6.8 -22.5 -12.6 -41.3 -12.9 -41.8 -0.4 -0.4 -7.2 20.9 -15.1 47.3 l-14.4 48 -17.2 0 -17.1 0 -11.1 -43.7z"/>
  <path d="M1446 137.6 l0 -103.6 32.3 0 c17.7 0 36.1 0.4 40.8 0.9 43.5 4.6 73.3 31.7 82.6 75.3 2.5 11.8 2.5 43.8 0 55.6 -6.7 31.2 -23.2 53.2 -49.2 65.8 -17.5 8.5 -19.4 8.8 -65.7 9.2 l-40.8 0.3 0 -103.5z m76.2 68.3 c8.4 -1.8 15.8 -5.8 21.8 -11.8 11.1 -11.3 15.7 -24.8 16.7 -49.7 1.2 -31.5 -4 -50.8 -17 -63.1 -10.4 -9.8 -18.5 -12.3 -40.4 -12.3 l-15.3 0 0 69 0 69 14.5 0 c7.9 0 16.8 -0.5 19.7 -1.1z"/>
 </g>
 <g fill="#fe4026">
  <path d="M1227.6 662.9 c-3.3 -2.6 -3.3 -5.2 0.3 -11.4 6.2 -10.9 25.5 -30 97.1 -96.6 51 -47.4 77.6 -74.8 81.5 -84.1 1.3 -3.2 1.3 -3.7 -0.1 -4.9 -1.3 -1 -2 -1 -4 0.2 -4.4 2.7 -39.7 34.2 -89.9 80.4 -44 40.4 -74.5 67.4 -92.5 82.1 -10.4 8.4 -12.5 9.7 -15 8.9 -6.9 -2.2 -41.8 -32.9 -43.5 -38.3 -0.4 -1.5 -0.1 -3.2 0.9 -4.6 1.8 -2.8 51.8 -50.6 90.1 -86.1 109.7 -101.8 142.5 -134 142.5 -140.1 0 -0.8 -1 -1.4 -2.3 -1.4 -6.6 0 -33.9 23.1 -113.7 96.5 -87 79.9 -125.5 113.3 -132.7 115.1 -1.5 0.4 -3.9 0 -6.2 -1.1 -13.3 -6.3 -39.1 -30.9 -39.1 -37.3 0 -3 53 -54.9 110.5 -108.2 69.6 -64.6 102.5 -97.3 100.2 -99.6 -2.5 -2.6 -16.4 7.9 -53.7 40.6 -13.9 12.1 -27.8 24.8 -89.9 81.4 -38.7 35.3 -73.8 65 -80.9 68.4 -3.2 1.6 -3.5 1.5 -8.6 -1.1 -10 -5.2 -31.4 -25.6 -35.7 -33.9 l-1.9 -3.8 7.8 -8.7 c8.8 -9.8 38.1 -38.1 72.2 -69.7 27.4 -25.4 50.8 -48.4 56.1 -54.9 7.1 -8.9 3.8 -12.7 -6 -7 -9.4 5.4 -21.7 15.8 -60.5 51.3 -30.5 27.9 -40.8 36.6 -49 41.4 -9.4 5.6 -13.9 4.7 -16.5 -3.4 -2.7 -8.4 -4.1 -49.3 -2 -59 2.2 -10.4 12.1 -21.2 43.8 -47.6 19.6 -16.4 29.8 -22.4 35.5 -21 3.5 0.9 7 7.7 6.1 11.7 -1.1 4.8 -11.4 16.7 -30.2 34.7 -9.6 9.2 -20.6 20.3 -24.4 24.7 -5.8 6.6 -6.9 8.4 -6.7 11 0.6 6.5 7.2 3.7 23.4 -10 4.3 -3.7 17.1 -15.2 28.4 -25.5 30.6 -28 47.7 -42.2 55.6 -46.3 2.8 -1.4 3.3 -1.4 7 0.2 9.2 4.2 34.9 28.3 37.2 35 1.1 3 0.8 3.5 -4.7 9.9 -8.4 9.6 -38.9 39.4 -73.1 71.3 -40.5 37.9 -59.8 58.4 -61.6 65.5 -0.8 3.2 0.1 5.4 2.3 5.4 2.8 0 30.9 -25 110.8 -98.5 61.2 -56.4 74.6 -68 90.5 -78.5 12.2 -7.9 19.4 -10.1 35.5 -10.7 16.4 -0.6 44.3 1.2 48.9 3.1 5 2.1 5.6 5.5 2 10.8 -7 10.2 -39.3 41.7 -108.9 106.3 -72.2 67.1 -119.9 113 -121.1 116.7 -0.6 2.1 2 5.8 4.2 5.8 3.5 0 50.5 -41.3 127.9 -112.5 85.1 -78.2 108.5 -98.4 117.9 -101.5 3.4 -1.1 4.1 -1 9.4 2.2 8 4.7 27 23.9 30.7 31 2.7 5.1 2.8 5.9 1.5 8.2 -3 5.7 -49.1 49.8 -127.5 122.1 -45.4 41.8 -85.9 80.1 -97.2 91.7 -8.6 8.9 -9.3 10.7 -5.4 14.2 1.6 1.5 2.2 1.3 6.7 -2.1 13 -9.7 52 -44.3 99.1 -88 57.9 -53.4 103.9 -93.9 112 -98.1 3 -1.7 8 0.3 9.9 3.9 2.5 4.9 3.6 18 3.2 39.1 l-0.3 20.3 -3.3 6.8 c-1.9 3.7 -6 10 -9.2 14 -9.9 12.3 -51.3 51.8 -115 109.8 -38.6 35.1 -55.5 48.9 -65.2 53.4 -6.5 3 -7.8 3.1 -11.2 0.4z"/>
  <path d="M1107.9 281.2 c-4.8 -4.3 -5.9 -10.8 -6.8 -40.3 -0.8 -29.4 -1.2 -30.9 -7.9 -30.9 -5.8 -0.1 -11.2 -1.6 -13.7 -4 -3.7 -3.4 -6.3 -12.8 -9 -31.9 -4.8 -33.5 -5.6 -35.6 -33.4 -91.1 -31.3 -62.6 -33.6 -69.5 -23.9 -72.9 5.3 -1.9 35.2 -2.9 101.8 -3.6 85.7 -0.9 102 0.1 108.2 7.1 3.8 4.4 3.4 5.9 -8.2 28.4 -16.3 31.6 -42.7 85.4 -46.2 93.9 -5.1 12.5 -7.7 25 -8.7 41.3 -0.8 12.3 -1.4 15.8 -3.4 20.2 -3.4 7.3 -6.9 10.3 -13.7 11.6 -3 0.6 -6.5 1.3 -7.7 1.5 -3.6 0.8 -4.5 6.8 -5.2 35.1 -0.8 30 -1.1 30.9 -9.6 35.6 -6.3 3.5 -8.7 3.5 -12.6 0z m56.3 -211.1 c2.1 -0.6 5.1 -2.8 6.9 -4.9 3.2 -3.9 13.9 -26.2 13.9 -29.2 0 -2.5 -11.1 -3 -64 -3 -44.1 0 -70.4 1.1 -74 3 -1.7 0.9 -1.8 1.4 -0.6 4.8 1.7 4.9 8.1 17.5 11.2 22.1 3.4 5.2 7.5 7.2 16.3 8.1 12.3 1.3 86 0.5 90.3 -0.9z"/>
 </g>
</svg>