<?xml version="1.0" encoding="UTF-8" standalone="no"?>
<svg
   xmlns:dc="http://purl.org/dc/elements/1.1/"
   xmlns:cc="http://creativecommons.org/ns#"
   xmlns:rdf="http://www.w3.org/1999/02/22-rdf-syntax-ns#"
   xmlns:svg="http://www.w3.org/2000/svg"
   xmlns="http://www.w3.org/2000/svg"
   xmlns:sodipodi="http://sodipodi.sourceforge.net/DTD/sodipodi-0.dtd"
   xmlns:inkscape="http://www.inkscape.org/namespaces/inkscape"
   width="512.0px"
   height="512.0px"
   viewBox="0 0 512.0 512.0"
   version="1.1"
   id="SVGRoot"
   sodipodi:docname="Logo.svg"
   inkscape:version="1.0.2-2 (e86c870879, 2021-01-15)">
  <defs
     id="defs1487" />
  <sodipodi:namedview
     id="base"
     pagecolor="#ffffff"
     bordercolor="#666666"
     borderopacity="1.0"
     inkscape:pageopacity="0.0"
     inkscape:pageshadow="2"
     inkscape:zoom="2.02"
     inkscape:cx="400"
     inkscape:cy="217.14286"
     inkscape:document-units="px"
     inkscape:current-layer="layer1"
     inkscape:document-rotation="0"
     showgrid="true"
     inkscape:window-width="2560"
     inkscape:window-height="1377"
     inkscape:window-x="2552"
     inkscape:window-y="-8"
     inkscape:window-maximized="1">
    <inkscape:grid
       type="xygrid"
       id="grid2057" />
  </sodipodi:namedview>
  <metadata
     id="metadata1490">
    <rdf:RDF>
      <cc:Work
         rdf:about="">
        <dc:format>image/svg+xml</dc:format>
        <dc:type
           rdf:resource="http://purl.org/dc/dcmitype/StillImage" />
        <dc:title></dc:title>
      </cc:Work>
    </rdf:RDF>
  </metadata>
  <g
     inkscape:label="Layer 1"
     inkscape:groupmode="layer"
     id="layer1">
    <g
       id="g867"
       inkscape:export-filename="C:\Users\JanS\OneDrive\Documents\OneTwo3d\Marketing\Logo New\LogoGrey.png"
       inkscape:export-xdpi="299.97464"
       inkscape:export-ydpi="299.97464"
       transform="matrix(2.4266488,0,0,2.4266488,2151.2672,676.43075)">
      <g
         fill="#ffffff"
         id="g36"
         transform="matrix(0.6806273,0,0,0.62913013,-910.97025,-296.70719)"
         style="fill:#ff3f26;fill-opacity:1">
        <path
           d="m 199.4,362.6 c -4,-3.8 2.2,-11.2 41.6,-50.6 37.2,-37.2 47.8,-50 41.4,-50 -0.8,0 -21.2,19.8 -45.4,44 -24.2,24.2 -45.4,44 -47,44 -3.4,0 -22,-17.8 -22,-21 0,-1 25.4,-27.4 56.6,-58.4 44.8,-45 55.8,-57.2 53.4,-58.6 -2.4,-1.4 -15,10 -58,53 -36,36 -56.4,55 -59,55 -4.8,0 -21,-15.6 -21,-20 0,-1.6 23.2,-26.2 51.4,-54.4 37.2,-37.2 50.4,-51.6 47.4,-51.6 -2.8,0 -20.6,16.4 -53.4,49 -30.4,30.4 -50.6,49 -53,49 -4.2,0 -20.4,-16.2 -20.4,-20.4 0,-1.4 15.4,-18 34.4,-37 28,-28 33.8,-34.6 30.8,-35.8 -2.8,-1 -9.6,4.6 -30.2,25.2 -32.6,32.6 -33.8,32.8 -34.6,6.2 -0.6,-18.6 -0.6,-18.6 16,-34.4 17.2,-16.2 22.4,-18.8 24.6,-11.6 1.2,3.2 -1.6,7.2 -13.8,19.8 -8.4,8.6 -15.2,16.4 -15.2,17.6 0,6 5.2,2.2 26,-18.8 12.4,-12.6 24.2,-22.8 26,-22.8 4,0 20,16 20,20 0,1.8 -14.8,17.8 -33,36 -28.6,28.4 -37.6,40 -31.4,40 0.8,0 23,-21.6 49.4,-48 48,-48 48,-48 67,-47.6 17.2,0.6 19,1 19.6,4.6 0.4,3 -14.4,18.8 -54.6,59 -30.2,30.2 -55,56.2 -55,57.4 0,1.4 1.2,2.6 2.4,2.6 1.4,0 27.4,-24.8 57.8,-55.2 45.8,-45.8 56,-55 59.4,-54 5.4,1.8 18.4,16.2 18.4,20.6 0,1.8 -24.8,27.6 -55,57.4 -30.2,30 -55,55.4 -55,56.6 0,1.4 0.8,2.8 1.8,3.4 1,0.6 23.6,-20.8 50.4,-47.8 26.8,-27 50.2,-49 52,-49 4.8,0 5.8,4 5.8,22.6 0,16.4 0,16.4 -44.6,61 -40.8,40.8 -48.2,47 -52,43 z"
           id="path32"
           style="fill:#ff3f26;fill-opacity:1" />
        <path
           d="m 142.4,167.6 c -1.4,-1.4 -2.4,-8.8 -2.4,-19 0,-16.4 0,-16.6 -5,-16.6 -6.2,0 -8,-4 -9.8,-21.8 -0.6,-7 -3.4,-17.4 -6,-23 -20,-42 -23.4,-50.2 -22.8,-54 0.6,-4.2 1.4,-4.2 49,-4.8 41.8,-0.4 48.6,0 51.4,2.8 2.2,2 2.6,4.2 1.4,6.4 -3.4,6.4 -20.6,43.4 -25.4,54.8 -3,7.4 -4.8,15.4 -4.8,22.4 0,11.8 -3.2,17.2 -10.2,17.2 -3.4,0 -3.8,1.6 -3.8,17 0,14.6 -0.6,17.2 -3.8,19 -4.8,2.6 -4.8,2.6 -7.8,-0.4 z M 176,52.8 c 2.2,-5 4,-9.6 4,-10 0,-0.4 -14.8,-0.8 -33,-0.8 -21.6,0 -33,0.8 -33,2 0,1.2 1.8,5.8 4,10 4,8 4,8 29.2,8 25,0 25,0 28.8,-9.2 z"
           id="path34"
           style="fill:#ff3f26;fill-opacity:1" />
      </g>
      <path
         style="fill:#ff3f26;fill-opacity:1;stroke-width:0.953281"
         d="m -812.75282,-190.95291 c -1.47077,-0.90899 -2.70042,-8.47749 -2.8318,-17.42976 -0.0744,-5.06704 -0.24681,-5.48137 -2.28144,-5.48137 -4.31005,0 -5.39157,-1.90035 -7.32802,-12.87623 -1.70031,-9.63735 -2.59248,-11.99428 -11.1062,-29.34027 -8.20862,-16.72435 -9.09618,-19.02232 -7.83444,-20.28407 1.17206,-1.17205 6.37055,-1.51468 29.48384,-1.94325 28.69166,-0.532 35.7372,-0.0518 37.3767,2.54732 0.70028,1.11017 -1.47006,6.31945 -8.73363,20.96249 -9.09607,18.33729 -9.72632,19.99063 -10.69812,28.06472 -0.85963,7.14203 -1.42529,8.93891 -3.37608,10.72441 -1.28889,1.17969 -3.11923,2.14488 -4.06742,2.14488 -1.50937,0 -1.8291,1.32154 -2.56836,10.61572 -0.71754,9.02102 -1.13163,10.80531 -2.75655,11.87777 -1.20439,0.79491 -2.41791,0.9495 -3.27848,0.41764 z m 19.39579,-68.23408 c 1.90945,-1.90944 5.52989,-10.09272 4.79124,-10.82961 -0.8227,-0.82074 -44.01367,-0.65342 -44.84079,0.1737 -0.92296,0.92296 3.42089,10.10427 5.30132,11.20507 0.81261,0.47569 8.63219,0.87794 17.37684,0.89389 13.09117,0.0239 16.15935,-0.23101 17.37139,-1.44305 z"
         id="path861" />
    </g>
  </g>
</svg>
